<svg width="20" height="17" viewBox="0 0 20 17" fill="none" xmlns="http://www.w3.org/2000/svg">
<path fill-rule="evenodd" clip-rule="evenodd" d="M6.08609 15.7309C6.07126 15.7021 6.05806 15.6723 6.04655 15.6418C5.96668 15.4391 5.94209 15.2154 5.97576 14.9978H1.24962L8.27312 1.44565L10.5789 5.88994L11.2475 4.59276L9.23756 0.71023C9.1813 0.598341 8.8418 0 8.25648 0C7.99199 0 7.61287 0.125597 7.30462 0.719397L0.189466 14.4359C0.129067 14.5547 -0.164647 15.1782 0.126957 15.7309C0.260257 15.982 0.543579 16.2812 1.16843 16.2812H7.12757C6.50685 16.2812 6.21939 15.9866 6.08609 15.7309V15.7309Z" fill="#01C58E"/>
<path fill-rule="evenodd" clip-rule="evenodd" d="M19.7879 14.436L13.9412 3.14261C13.8808 3.02387 13.5434 2.42322 12.956 2.42322C12.6915 2.42322 12.3124 2.54659 12.0041 3.1403L11.248 4.59289L11.9208 5.88998L12.9623 3.86895L18.7465 14.9979H16.5469C16.5751 15.1818 16.5593 15.3706 16.5011 15.546C16.4888 15.5847 16.4735 15.6221 16.4553 15.6579L16.4365 15.699C16.1408 16.2516 15.5012 16.2813 15.3764 16.2813H18.8173C18.9443 16.2813 19.5817 16.2517 19.8775 15.699C20.0088 15.4477 20.1025 15.0253 19.7879 14.436V14.436Z" fill="#108775"/>
<path fill-rule="evenodd" clip-rule="evenodd" d="M16.4362 15.6987L16.455 15.6575C16.4732 15.6217 16.4886 15.5843 16.5007 15.5456C16.559 15.3703 16.5747 15.1815 16.5466 14.9975C16.5142 14.7991 16.4493 14.6087 16.3549 14.4357L11.9246 5.8897L11.2477 4.59253L10.575 5.88962L6.14669 14.4357C6.06073 14.6108 6.00298 14.8009 5.97596 14.9975C5.94032 15.2145 5.96274 15.4382 6.0405 15.6415C6.05199 15.6721 6.06519 15.7018 6.08004 15.7306C6.21334 15.9818 6.49666 16.281 7.12152 16.281H15.3698C15.501 16.281 16.1405 16.2513 16.4362 15.6987V15.6987ZM11.2477 7.18688L15.2969 14.9975H7.20067L11.2477 7.18688V7.18688Z" fill="#2F495E"/>
</svg>
